<svg width="23" height="23" viewBox="0 0 23 23" fill="none" xmlns="http://www.w3.org/2000/svg">
<g clip-path="url(#clip0_346_2623)">
<path d="M22.6548 14.2819C21.1188 20.4427 14.8787 24.1917 8.71717 22.6557C2.55856 21.1197 -1.1908 14.8795 0.345529 8.71913C1.88078 2.55764 8.12061 -1.19208 14.2803 0.343892C20.4414 1.87986 24.1908 8.12077 22.6548 14.2819Z" fill="#F7931A"/>
<path d="M16.5707 9.86166C16.7992 8.33144 15.6342 7.50883 14.041 6.96006L14.5578 4.88719L13.2957 4.57274L12.7926 6.59099C12.4612 6.50833 12.1205 6.43035 11.782 6.35308L12.2887 4.32153L11.0277 4.00708L10.5105 6.07924C10.236 6.01671 9.96645 5.95489 9.70482 5.88985L9.70626 5.88338L7.96617 5.44889L7.63051 6.79655C7.63051 6.79655 8.56668 7.0111 8.54692 7.02439C9.05795 7.15197 9.15067 7.49014 9.13486 7.75824L8.5462 10.1197C8.58142 10.1287 8.62706 10.1416 8.67737 10.1617L8.5444 10.1287L7.71892 13.4367C7.65639 13.592 7.4979 13.8248 7.14068 13.7364C7.15326 13.7548 6.22356 13.5075 6.22356 13.5075L5.59717 14.9522L7.23951 15.3615C7.54498 15.4381 7.84434 15.5182 8.13867 15.5937L7.6165 17.6906L8.87682 18.0051L9.39432 15.9308C9.73825 16.0242 10.0725 16.1105 10.3995 16.1917L9.88415 18.2563L11.1459 18.5708L11.6681 16.4781C13.8197 16.8853 15.4379 16.721 16.1182 14.7754C16.667 13.2085 16.0913 12.3047 14.9592 11.715C15.7837 11.5241 16.405 10.9818 16.5707 9.86166ZM13.6874 13.9043C13.2971 15.4711 10.6593 14.6245 9.80365 14.4117L10.4965 11.6341C11.3518 11.8476 14.0939 12.2702 13.6874 13.9043ZM14.0773 9.83902C13.7216 11.2643 11.5258 10.5402 10.8131 10.3626L11.4413 7.84341C12.154 8.02094 14.4482 8.35228 14.0773 9.83902Z" fill="black"/>
</g>
<defs>
<clipPath id="clip0_346_2623">
<rect width="23" height="23" fill="white"/>
</clipPath>
</defs>
</svg>
