<svg width="23" height="23" viewBox="0 0 23 23" fill="none" xmlns="http://www.w3.org/2000/svg">
<g clip-path="url(#clip0_346_2655)">
<path d="M11.5 0C9.22552 0 7.00211 0.674463 5.11095 1.9381C3.21978 3.20174 1.7458 4.99779 0.875391 7.09914C0.00498273 9.20049 -0.222756 11.5128 0.220974 13.7435C0.664705 15.9743 1.75997 18.0234 3.36828 19.6317C4.97658 21.24 7.02569 22.3353 9.25647 22.779C11.4872 23.2228 13.7995 22.995 15.9009 22.1246C18.0022 21.2542 19.7983 19.7802 21.0619 17.8891C22.3255 15.9979 23 13.7745 23 11.5C23.0044 9.99418 22.7122 8.50225 22.14 7.10938C21.5678 5.7165 20.7268 4.44997 19.6652 3.3821C18.6035 2.31422 17.3419 1.46592 15.9524 0.885616C14.5629 0.305314 13.0726 0.00438161 11.5668 0H11.5ZM11.6949 11.8898L10.4976 15.9274H16.9019C16.9444 15.9259 16.9867 15.9328 17.0264 15.9476C17.0662 15.9625 17.1026 15.9851 17.1337 16.014C17.1647 16.043 17.1897 16.0778 17.2073 16.1164C17.2249 16.1551 17.2346 16.1968 17.2361 16.2392V16.345L16.6792 18.2663C16.6546 18.3572 16.5999 18.437 16.524 18.4927C16.4481 18.5483 16.3555 18.5765 16.2615 18.5726H6.46005L8.10291 12.9758L6.26514 13.5327L6.68281 12.2518L8.52059 11.6949L10.8317 3.84262C10.8572 3.75227 10.9121 3.67303 10.9878 3.61752C11.0635 3.56201 11.1556 3.53343 11.2494 3.53632H13.7276C13.77 3.53483 13.8123 3.54172 13.8521 3.55659C13.8919 3.57146 13.9283 3.59403 13.9593 3.62299C13.9904 3.65196 14.0154 3.68675 14.0329 3.72539C14.0505 3.76403 14.0603 3.80576 14.0617 3.84818V3.954L12.1126 10.5811L13.9504 10.0242L13.5605 11.3608L11.6949 11.8898Z" fill="#74AAFF"/>
</g>
<defs>
<clipPath id="clip0_346_2655">
<rect width="23" height="23" fill="white"/>
</clipPath>
</defs>
</svg>
